<?xml version="1.0" encoding="utf-8"?>
<!-- Generator: Adobe Illustrator 20.1.0, SVG Export Plug-In . SVG Version: 6.00 Build 0)  -->
<svg version="1.1" id="Calque_1" xmlns="http://www.w3.org/2000/svg" xmlns:xlink="http://www.w3.org/1999/xlink" x="0px" y="0px"
	 viewBox="0 0 141.7 141.7" style="enable-background:new 0 0 141.7 141.7;" xml:space="preserve">
<style type="text/css">
	.st0{fill:#661141;}
	.st1{fill:#FFFFFF;}
</style>
<g>
	<path class="st0" d="M0.2,0.2c47.2,0,94.5,0,141.7,0c0,47.2,0,94.5,0,141.7c-47.2,0-94.5,0-141.7,0C0.2,94.7,0.2,47.4,0.2,0.2z
		 M67.6,30.4c0-0.1,0-0.2,0-0.2c-4.1,0.4-8.2,0.6-12.3,1.3c-3.9,0.6-7.7,1.5-11.1,3.7c-1.4,0.9-2.8,1.8-3.5,3.3
		c-0.8,1.9-1.6,3.7-2.3,5.6c-1.5,4.2-2.4,8.5-3.2,12.8c-1.2,6.6-1.5,13.2-1.2,19.8c0.2,3.8,0.4,7.5,1.1,11.3
		c1.1,6.1,2.5,12.1,5.5,17.6c1.5,2.8,3.9,4.5,6.8,5.6c3,1.2,6.2,1.8,9.4,2.3c5,0.7,10,1.1,15,0.7c2.8-0.2,5.6-0.6,8.3-1
		c0.7-0.1,1.1,0,1.6,0.5c0.7,0.7,1.4,1.4,2.1,2c1,0.9,1.2,0.9,2.3,0.1c0.6-0.4,1.2-0.8,1.6-1.3c1-1,2-1.3,3.2-0.4
		c0.3,0.2,0.7,0.6,0.7,0.9c0.3,1.3,0.4,2.5,0.6,3.8c0.1,0.7,0.5,1.1,1.3,1.1c1.8,0,3.5,0,5.3,0c0.8,0,1.2-0.4,1.3-1.1
		c0.2-0.9,0.4-1.8,0.4-2.7c0-1.3,0.5-2.1,1.9-2.5c0.6-0.2,1-0.2,1.4,0.2c0.8,0.7,1.7,1.3,2.5,2c0.7,0.6,1.4,0.6,2.1,0
		c1.3-1.3,2.6-2.6,3.9-4c0.5-0.5,0.4-1.1,0-1.6c-0.5-0.6-0.9-1.2-1.4-1.8c-1.1-1-1.3-2.1-0.4-3.4c0.2-0.3,0.6-0.6,0.9-0.7
		c1.2-0.3,2.5-0.4,3.7-0.6c0.7-0.1,1.1-0.4,1.1-1.1c0-1.9,0-3.7,0-5.6c0-0.6-0.3-1-1-1.1c-0.7-0.1-1.5-0.3-2.2-0.3
		c-1.6-0.1-2.8-0.5-3.1-2.3c-0.1-0.5-0.2-0.8,0.1-1.2c0.7-0.9,1.4-1.8,2.1-2.7c0.5-0.6,0.6-1.2,0-1.8c-1.3-1.3-2.6-2.7-4-4
		c-0.5-0.5-1-0.4-1.5,0c-0.9,0.7-1.8,1.2-2.6,2c-1.1,1.1-2.1,0.1-3-0.3c-0.3-0.1-0.5-1.1-0.4-1.7c0.1-3.2,0.4-6.3,0.5-9.5
		c0.1-2.9-0.1-5.9-0.2-8.8c-0.2-5.2-1.2-10.4-2.4-15.4c-0.8-3.2-1.9-6.4-3.1-9.5c-0.6-1.5-1.4-3-2.5-4c-2.6-2.5-6-3.7-9.4-4.5
		C78.3,30.9,72.9,30.5,67.6,30.4z"/>
	<path class="st1" d="M67.6,30.4c5.4,0,10.7,0.4,15.9,1.7c3.4,0.8,6.8,2,9.4,4.5c1.1,1.1,2,2.6,2.5,4c1.2,3.1,2.3,6.3,3.1,9.5
		c1.2,5.1,2.2,10.2,2.4,15.4c0.1,2.9,0.3,5.9,0.2,8.8c-0.1,3.2-0.4,6.3-0.5,9.5c0,0.6,0.1,1.5,0.4,1.7c0.9,0.4,1.8,1.4,3,0.3
		c0.8-0.8,1.7-1.3,2.6-2c0.5-0.4,1.1-0.5,1.5,0c1.3,1.3,2.7,2.7,4,4c0.6,0.6,0.5,1.2,0,1.8c-0.7,0.9-1.4,1.8-2.1,2.7
		c-0.3,0.4-0.2,0.7-0.1,1.2c0.4,1.8,1.5,2.2,3.1,2.3c0.7,0,1.5,0.2,2.2,0.3c0.6,0.1,1,0.4,1,1.1c0,1.9,0,3.7,0,5.6
		c0,0.7-0.4,1.1-1.1,1.1c-1.2,0.2-2.5,0.3-3.7,0.6c-0.3,0.1-0.7,0.4-0.9,0.7c-0.9,1.2-0.7,2.3,0.4,3.4c0.5,0.5,1,1.2,1.4,1.8
		c0.4,0.5,0.5,1.1,0,1.6c-1.3,1.3-2.6,2.7-3.9,4c-0.7,0.7-1.3,0.7-2.1,0c-0.8-0.7-1.7-1.3-2.5-2c-0.5-0.4-0.9-0.4-1.4-0.2
		c-1.3,0.4-1.8,1.1-1.9,2.5c0,0.9-0.3,1.8-0.4,2.7c-0.1,0.7-0.5,1.1-1.3,1.1c-1.8,0-3.5,0-5.3,0c-0.8,0-1.2-0.4-1.3-1.1
		c-0.2-1.3-0.3-2.6-0.6-3.8c-0.1-0.3-0.4-0.7-0.7-0.9c-1.2-0.8-2.2-0.6-3.2,0.4c-0.5,0.5-1.1,0.8-1.6,1.3c-1.1,0.8-1.2,0.8-2.3-0.1
		c-0.7-0.7-1.5-1.3-2.1-2c-0.5-0.5-0.9-0.6-1.6-0.5c-2.8,0.4-5.6,0.7-8.3,1c-5,0.4-10,0-15-0.7c-3.2-0.5-6.4-1.1-9.4-2.3
		c-2.9-1.1-5.3-2.7-6.8-5.6c-3-5.5-4.4-11.5-5.5-17.6c-0.7-3.7-0.9-7.5-1.1-11.3c-0.3-6.7,0-13.3,1.2-19.8c0.8-4.3,1.7-8.6,3.2-12.8
		c0.7-1.9,1.5-3.8,2.3-5.6c0.7-1.6,2.1-2.4,3.5-3.3c3.4-2.2,7.2-3.1,11.1-3.7c4.1-0.6,8.2-0.9,12.3-1.3
		C67.6,30.3,67.6,30.3,67.6,30.4z M35.5,69.6c0,2,0,4.1,0,6.1c0,0.4,0.2,0.8,0.5,1c1.4,1.1,2.8,2.3,4.3,3.1c1.5,0.8,3.2,1.4,4.9,1.9
		c1.9,0.6,3.9,1.2,5.9,1.6c4,0.8,8.1,1.1,12.1,1.4c5.1,0.3,10.3,0,15.4-0.5c4.2-0.5,8.4-1.3,12.4-2.9c0.4-0.2,1.1-0.2,1.2-0.4
		c0.5-1,1.2-0.9,2.1-0.9c0.3,0,0.6-0.1,0.8-0.2c0.8-0.5,1.6-1,2.4-1.5c1.5-1,2.5-2.2,2.3-4.3c-0.2-1.4,0-2.9,0-4.5
		c-0.4,0.1-0.6,0.2-0.7,0.2c-2.3,2.1-5.2,3.2-8.1,4.2C89,74.6,87,75.3,85,75.7c-2.8,0.6-5.7,1-8.6,1.3c-2.5,0.3-5,0.4-7.5,0.4
		c-3.8-0.1-7.6-0.3-11.4-0.6c-3-0.3-5.9-0.9-8.9-1.4c-0.7-0.1-1.4-0.4-2-0.7c-2.3-0.9-4.7-1.7-7-2.7C38.2,71.3,37,70.4,35.5,69.6z
		 M41.3,40.7c-0.7,2.1-1.5,4.3-2.1,6.4c-0.1,0.2,0.1,0.6,0.3,0.8c1.3,1.6,3,2.5,4.7,3.3c3.2,1.4,6.5,2.3,9.9,2.8
		c6.2,1.1,12.5,1.5,18.8,1.4c6-0.1,11.9-0.7,17.5-3c2.1-0.9,4-2,5.5-3.7c0.2-0.2,0.3-0.7,0.2-1c-0.2-0.9-0.5-1.8-0.8-2.6
		c-0.5-1.5-1.1-3-1.8-4.7c-0.6,1.6-1.7,2.5-2.8,3.2c-2.4,1.5-5.1,2.3-7.8,3c-4.6,1.1-9.3,1.6-14,1.6c-7.6,0.1-15.2-0.5-22.3-3.4
		C44.6,44,42.6,42.9,41.3,40.7z M90.9,41.5c-1.7-1.6-3.8-2.3-5.9-2.9c-5.7-1.6-11.5-2.4-17.4-2.2c-4,0.1-8,0.4-11.9,1
		c-2.8,0.4-5.6,1.3-8.4,2.2c-1.1,0.4-2.1,1.2-3.3,1.9c2.1,1.8,4.5,2.6,6.9,3.3c4.3,1.2,8.7,1.7,13.1,1.9c6.8,0.4,13.5-0.2,20-1.9
		C86.5,44.1,88.9,43.3,90.9,41.5z M82,105.8c-13.8,1.6-27.6,1.6-41.2-3.2c0.4,0.7,0.7,1.3,1,1.9c0.8,1.4,1.6,2.7,3,3.5
		c1.7,0.9,3.3,1.8,5.1,2.3c2.9,0.8,5.9,1.5,8.8,1.9c5.2,0.6,10.4,0.6,15.6,0.2c1.7-0.1,3.5-0.4,5-0.6c0.4-0.8,0.7-1.3,1-1.8
		c0.5-0.7,1-1.4,1.6-2C82.7,107.3,82.8,106.6,82,105.8z M47,54.2c-0.2,1.8-0.6,3.7-0.7,5.6c-0.3,3.8-0.4,7.6-0.6,11.4
		c0,0.6-0.4,1.3,0.4,1.7c0.5,0.3,1.1,0.6,1.6,0.7c1.3,0.3,2.7,0.5,4.1,0.8c1.4,0.2,2.7,0.5,4.1,0.7c0.1-6.5,0.3-12.7,0.4-19
		C53.3,55.5,50.2,54.8,47,54.2z M79.2,75c3.1-0.2,6.1-0.8,9-1.7c1.5-0.5,1.4-0.6,1.3-2.2c-0.1-2.1-0.1-4.2-0.3-6.3
		c-0.2-3.2-0.5-6.4-0.8-9.6c-3.4,0.6-6.5,1.2-9.5,1.8C79,62.8,79.1,68.8,79.2,75z M46.3,83.8c0,0.6,0,1.1,0.1,1.6
		c0.2,1.9,0.4,3.9,0.8,5.8c0.5,3.1,1.1,6.2,1.8,9.3c0.2,1,0.2,2.2,0.9,2.8c0.7,0.6,1.9,0.5,2.9,0.7c1.7,0.3,3.4,0.5,5.3,0.8
		c-0.2-1.5-0.4-2.8-0.6-4.1c-0.4-4.6-0.8-9.3-1.1-13.9c-0.1-0.9-0.3-1.3-1.2-1.3c-1,0-1.9-0.2-2.9-0.4
		C50.3,84.8,48.3,84.3,46.3,83.8z M58,56.4c-0.1,3.8-0.3,7.5-0.4,11.2c-0.1,2.2-0.1,4.4-0.1,6.6c0,1.4,0,1.4,1.4,1.4
		c1.2,0,2.4,0.2,3.5,0.2c1.4,0,2.9,0,4.2,0c0-6.3,0-12.5,0-18.8C63.8,56.7,61,56.6,58,56.4z M68.4,57c0,6.3,0,12.5,0,18.9
		c3.1-0.2,6.1-0.4,9.3-0.5C77.5,69.1,77.3,63,77.1,57C74.2,57,71.3,57,68.4,57z M47.9,103.1c-0.2-0.7-0.5-1.4-0.6-2
		c-1.1-5.5-2.1-11-2.5-16.6c-0.1-0.9-0.4-1.3-1.2-1.6c-2.6-0.9-5-2.1-7.2-3.7c-0.1-0.1-0.4-0.1-0.7-0.3c0.2,2,0.4,3.8,0.6,5.6
		c0.6,5.1,1.6,10.2,3.4,15c0.1,0.3,0.2,0.6,0.5,0.8C42.5,101.6,45,102.6,47.9,103.1z M44.1,72.3c0-0.6,0-1.2,0-1.7
		c0.4-5.4,0.9-10.8,1.3-16.3c0-0.3-0.1-0.9-0.4-1c-2.3-1-4.5-2.1-6.5-4c-0.4,1.5-0.7,2.8-1,4.1c-0.7,4.3-1.3,8.6-1.8,13
		c0,0.4,0.2,0.9,0.4,1.1c0.9,0.8,1.9,1.7,2.9,2.4C40.5,70.9,42.1,71.9,44.1,72.3z M66.7,105.2c0-6.3,0-12.4,0-18.5
		c-3-0.2-5.8-0.4-8.8-0.6c0.2,6.3,0.9,12.5,1.7,18.8C62,105,64.3,105.1,66.7,105.2z M68.4,105.2c2.1-0.1,4.1-0.2,6.1-0.3
		c0.7,0,1-0.3,1.1-1c0.3-2.8,0.7-5.6,1-8.5c0.2-1.7,0.4-3.3,0.5-5c0.1-1.5,0-3,0-4.5c-2.8,0.2-5.7,0.4-8.6,0.6
		C68.4,92.8,68.4,98.9,68.4,105.2z M97,50.3c-1.2,0.8-2.2,1.6-3.2,2.2c-1,0.6-2.1,1.2-3.2,1.6c-0.6,0.3-0.8,0.6-0.7,1.3
		c0.5,5.3,1.4,10.7,1,16.1c0,0.3,0.1,0.5,0.2,1c1.3-0.6,2.4-1.2,3.6-1.7c1.6-0.8,3.1-1.8,4.3-3.1c0.3-0.3,0.4-0.8,0.4-1.1
		c-0.2-2-0.3-4.1-0.7-6.1C98.2,56.9,97.6,53.6,97,50.3z M92.1,40.3c0.3-1,0.2-1.9-0.5-2.5c-0.7-0.6-1.4-1.2-2.2-1.7
		c-2.3-1.4-4.8-2.1-7.4-2.7c-4-0.9-8.1-1.3-12.3-1.4c-7.7-0.1-15.2,0.4-22.4,3.2c-1.4,0.6-2.8,1.3-3.8,2.5c-0.6,0.7-0.8,1.5-0.4,2.4
		c0.5-0.3,0.9-0.7,1.3-0.9c1.9-0.8,3.8-1.8,5.8-2.4c2.7-0.7,5.4-1.3,8.1-1.7c5.5-0.6,11.1-0.8,16.7-0.2c2.8,0.3,5.6,0.7,8.4,1.3
		C86.5,37.2,89.5,38.2,92.1,40.3z M94.2,106.2c3.4,1.2,7.3-0.8,8.4-4.3c1-3.2-0.8-7.2-3.7-8C97.6,98.2,96.4,102.4,94.2,106.2z
		 M90,102.4c0.8-0.3,1.6-0.6,2.4-0.9c1.5-0.7,3.1-1.1,3.5-3.2c0.3-1.6,0.9-3.2,1.4-4.9c-2.7-0.3-4.8,0.5-6.4,2.6
		C89.4,97.9,89.2,100.1,90,102.4z M82.3,85.4c-1.1,0.1-2.1,0.1-2.9,0.3c-0.2,0-0.6,0.5-0.6,0.7c-0.2,1.7-0.3,3.5-0.4,5.2
		c-0.1,1.4-0.1,2.7-0.2,4.2c0.6-0.1,1-0.2,1.5-0.2c1.4,0,2.2-0.5,2.6-1.9c0.2-0.6,0.2-1-0.2-1.4c-0.7-0.8-1.3-1.8-2.1-2.6
		c-0.6-0.7-0.6-1.3,0-1.9C80.8,87,81.5,86.3,82.3,85.4z M94.2,102.8c0-0.1-0.1-0.1-0.1-0.2c-1.1,0.4-2.1,0.8-3.3,1.3
		c0.7,0.6,1.2,1.1,1.9,1.8C93.3,104.6,93.7,103.7,94.2,102.8z M91.8,82.8c-1.4,0.5-1.7,1-1.5,3.1C91.8,85.5,91.9,85.2,91.8,82.8z
		 M86.6,84.4c0.7,0.6,1.3,1,2.1,1.6c0.1-0.8,0.2-1.5,0.2-2.3C88.1,84,87.4,84.2,86.6,84.4z M77.2,104.7c0.9-0.1,1.9-0.2,2.8-0.3
		c0-0.1,0-0.2,0-0.2c-0.7-0.1-1.5-0.2-2.2-0.3C77.2,103.8,77.1,104.1,77.2,104.7z M97.7,79.7c0,0.1,0.1,0.1,0.1,0.2c0.5,0,1,0,1.6,0
		c0-0.4,0-0.8,0-1.2C98.8,79,98.2,79.4,97.7,79.7z"/>
	<path class="st0" d="M35.5,69.6c1.5,0.9,2.7,1.8,4.2,2.4c2.3,1,4.6,1.9,7,2.7c0.7,0.3,1.3,0.6,2,0.7c3,0.5,5.9,1.1,8.9,1.4
		c3.8,0.4,7.6,0.6,11.4,0.6c2.5,0.1,5-0.1,7.5-0.4c2.9-0.3,5.7-0.7,8.6-1.3c2-0.4,4-1.1,5.9-1.8c2.9-1.1,5.7-2.2,8.1-4.2
		c0.1-0.1,0.3-0.1,0.7-0.2c0,1.6-0.1,3.1,0,4.5c0.3,2-0.7,3.3-2.3,4.3c-0.8,0.5-1.6,1-2.4,1.5c-0.2,0.1-0.5,0.2-0.8,0.2
		c-0.8,0-1.6,0-2.1,0.9c-0.1,0.3-0.8,0.3-1.2,0.4c-4,1.6-8.2,2.4-12.4,2.9c-5.1,0.6-10.2,0.9-15.4,0.5c-4.1-0.3-8.1-0.6-12.1-1.4
		c-2-0.4-3.9-1-5.9-1.6c-1.7-0.5-3.3-1.1-4.9-1.9c-1.5-0.9-2.9-2-4.3-3.1c-0.3-0.2-0.5-0.7-0.5-1C35.5,73.6,35.5,71.6,35.5,69.6z"/>
	<path class="st0" d="M41.3,40.7c1.3,2.2,3.3,3.4,5.4,4.2c7.2,2.9,14.7,3.4,22.3,3.4c4.7,0,9.4-0.5,14-1.6c2.7-0.6,5.4-1.4,7.8-3
		c1.1-0.7,2.3-1.6,2.8-3.2c0.7,1.7,1.2,3.2,1.8,4.7c0.3,0.9,0.6,1.7,0.8,2.6c0.1,0.3,0,0.8-0.2,1c-1.5,1.7-3.4,2.8-5.5,3.7
		c-5.6,2.3-11.5,2.9-17.5,3c-6.3,0.1-12.6-0.3-18.8-1.4c-3.4-0.6-6.8-1.4-9.9-2.8c-1.8-0.8-3.5-1.8-4.7-3.3
		c-0.2-0.2-0.4-0.6-0.3-0.8C39.8,44.9,40.6,42.8,41.3,40.7z"/>
	<path class="st0" d="M90.9,41.5c-2,1.7-4.4,2.6-6.8,3.2c-6.6,1.7-13.3,2.3-20,1.9c-4.4-0.2-8.9-0.7-13.1-1.9
		c-2.4-0.7-4.7-1.5-6.9-3.3c1.1-0.7,2.1-1.5,3.3-1.9c2.7-0.9,5.5-1.8,8.4-2.2c3.9-0.6,7.9-0.9,11.9-1c5.9-0.1,11.7,0.6,17.4,2.2
		C87.1,39.2,89.2,40,90.9,41.5z M60,38.7c0,0,0,0.1,0,0.1c-0.6,0-1.2,0-1.8,0.1c-1.5,0.3-3,0.3-4.3,1.3c-0.8,0.7-0.8,1.9,0.1,2.6
		c1,0.8,2.2,0.9,3.3,1.1c2.3,0.4,4.5,0.2,6.7-0.3c0.8-0.2,1.7-0.8,2.2-1.4c0.7-0.9-0.2-2.3-1.7-2.7C63.2,39.2,61.6,39,60,38.7z"/>
	<path class="st0" d="M82,105.8c0.8,0.8,0.6,1.5,0,2.2c-0.6,0.6-1.1,1.3-1.6,2c-0.3,0.5-0.6,1-1,1.8c-1.5,0.2-3.2,0.4-5,0.6
		c-5.2,0.4-10.4,0.4-15.6-0.2c-3-0.3-5.9-1.1-8.8-1.9c-1.8-0.5-3.5-1.4-5.1-2.3c-1.4-0.7-2.3-2.1-3-3.5c-0.3-0.6-0.6-1.2-1-1.9
		C54.4,107.5,68.2,107.5,82,105.8z"/>
	<path class="st0" d="M47,54.2c3.2,0.7,6.2,1.3,9.3,1.9c-0.1,6.2-0.3,12.5-0.4,19c-1.4-0.2-2.7-0.5-4.1-0.7
		c-1.4-0.2-2.7-0.5-4.1-0.8c-0.6-0.1-1.1-0.5-1.6-0.7c-0.8-0.4-0.4-1.1-0.4-1.7c0.2-3.8,0.3-7.6,0.6-11.4C46.5,57.9,46.8,56,47,54.2
		z"/>
	<path class="st0" d="M79.2,75c-0.1-6.2-0.2-12.2-0.3-18.1c3.1-0.6,6.2-1.1,9.5-1.8c0.3,3.2,0.6,6.4,0.8,9.6
		c0.1,2.1,0.2,4.2,0.3,6.3c0.1,1.6,0.2,1.8-1.3,2.2C85.3,74.1,82.3,74.8,79.2,75z"/>
	<path class="st0" d="M46.3,83.8c2.1,0.5,4,1,6,1.4c0.9,0.2,1.9,0.4,2.9,0.4c0.9,0,1.2,0.4,1.2,1.3c0.3,4.6,0.7,9.3,1.1,13.9
		c0.1,1.3,0.3,2.5,0.6,4.1c-1.9-0.3-3.6-0.5-5.3-0.8c-1-0.2-2.3-0.1-2.9-0.7c-0.6-0.6-0.7-1.8-0.9-2.8c-0.6-3.1-1.2-6.2-1.8-9.3
		c-0.3-1.9-0.5-3.9-0.8-5.8C46.3,84.9,46.3,84.4,46.3,83.8z"/>
	<path class="st0" d="M58,56.4c2.9,0.2,5.7,0.4,8.7,0.6c0,6.3,0,12.5,0,18.8c-1.4,0-2.8,0-4.2,0c-1.2,0-2.4-0.2-3.5-0.2
		c-1.4,0-1.4,0-1.4-1.4c0-2.2,0-4.4,0.1-6.6C57.8,63.9,57.9,60.2,58,56.4z"/>
	<path class="st0" d="M68.4,57c2.9,0,5.7,0,8.7,0c0.2,6,0.4,12.1,0.5,18.4c-3.1,0.2-6.2,0.4-9.3,0.5C68.4,69.5,68.4,63.3,68.4,57z"
		/>
	<path class="st0" d="M47.9,103.1c-2.8-0.5-5.4-1.5-7.7-2.8c-0.2-0.1-0.4-0.5-0.5-0.8c-1.8-4.9-2.8-9.9-3.4-15
		c-0.2-1.8-0.4-3.7-0.6-5.6c0.3,0.1,0.5,0.2,0.7,0.3c2.2,1.7,4.6,2.8,7.2,3.7c0.8,0.3,1.2,0.7,1.2,1.6c0.3,5.6,1.4,11.1,2.5,16.6
		C47.4,101.7,47.6,102.3,47.9,103.1z"/>
	<path class="st0" d="M44.1,72.3c-1.9-0.4-3.5-1.3-5.1-2.4c-1-0.7-2-1.5-2.9-2.4c-0.3-0.2-0.5-0.8-0.4-1.1c0.6-4.3,1.2-8.7,1.8-13
		c0.2-1.3,0.6-2.6,1-4.1c2,1.9,4.2,3,6.5,4c0.2,0.1,0.4,0.7,0.4,1c-0.4,5.4-0.8,10.8-1.3,16.3C44,71.1,44.1,71.7,44.1,72.3z"/>
	<path class="st0" d="M66.7,105.2c-2.3-0.1-4.6-0.2-7-0.3c-0.8-6.3-1.6-12.5-1.7-18.8c2.9,0.2,5.8,0.4,8.8,0.6
		C66.7,92.8,66.7,98.9,66.7,105.2z"/>
	<path class="st0" d="M68.4,105.2c0-6.3,0-12.4,0-18.5c2.9-0.2,5.8-0.4,8.6-0.6c0,1.5,0.1,3,0,4.5c-0.1,1.7-0.3,3.3-0.5,5
		c-0.3,2.8-0.7,5.6-1,8.5c-0.1,0.7-0.4,0.9-1.1,1C72.5,105,70.5,105.1,68.4,105.2z"/>
	<path class="st0" d="M97,50.3c0.6,3.4,1.2,6.7,1.8,10c0.3,2,0.5,4.1,0.7,6.1c0,0.4-0.2,0.9-0.4,1.1c-1.2,1.3-2.7,2.4-4.3,3.1
		c-1.2,0.6-2.3,1.1-3.6,1.7c-0.1-0.4-0.2-0.7-0.2-1c0.3-5.4-0.5-10.7-1-16.1c-0.1-0.7,0.1-1,0.7-1.3c1.1-0.5,2.2-1,3.2-1.6
		C94.9,51.8,95.8,51.1,97,50.3z"/>
	<path class="st0" d="M92.1,40.3c-2.6-2.1-5.6-3.1-8.7-3.8c-2.7-0.6-5.6-1-8.4-1.3c-5.6-0.6-11.1-0.5-16.7,0.2
		c-2.7,0.3-5.5,0.9-8.1,1.7c-2,0.6-3.9,1.5-5.8,2.4c-0.5,0.2-0.8,0.5-1.3,0.9c-0.4-0.9-0.2-1.7,0.4-2.4c1-1.2,2.4-1.9,3.8-2.5
		c7.2-2.9,14.8-3.4,22.4-3.2c4.1,0.1,8.2,0.5,12.3,1.4c2.6,0.6,5.1,1.2,7.4,2.7c0.8,0.5,1.5,1.1,2.2,1.7
		C92.4,38.5,92.4,39.3,92.1,40.3z"/>
	<path class="st0" d="M94.2,106.2c2.3-3.8,3.5-8,4.6-12.2c2.9,0.8,4.7,4.7,3.7,8C101.4,105.4,97.6,107.5,94.2,106.2z"/>
	<path class="st0" d="M90,102.4c-0.9-2.4-0.6-4.5,0.9-6.5c1.6-2.1,3.7-2.9,6.4-2.6c-0.5,1.7-1.1,3.3-1.4,4.9c-0.4,2-2,2.5-3.5,3.2
		C91.6,101.9,90.9,102.1,90,102.4z"/>
	<path class="st0" d="M82.3,85.4c-0.8,0.9-1.5,1.7-2.2,2.4c-0.6,0.6-0.6,1.2,0,1.9c0.7,0.8,1.3,1.7,2.1,2.6c0.4,0.5,0.3,0.9,0.2,1.4
		c-0.4,1.4-1.2,2-2.6,1.9c-0.5,0-0.9,0.1-1.5,0.2c0.1-1.5,0.1-2.8,0.2-4.2c0.1-1.7,0.2-3.5,0.4-5.2c0-0.3,0.3-0.7,0.6-0.7
		C80.3,85.5,81.2,85.5,82.3,85.4z"/>
	<path class="st0" d="M94.2,102.8c-0.5,0.9-1,1.8-1.6,2.9c-0.7-0.6-1.3-1.2-1.9-1.8c1.2-0.5,2.3-0.9,3.3-1.3
		C94.1,102.6,94.2,102.7,94.2,102.8z"/>
	<path class="st0" d="M91.8,82.8c0.1,2.4,0,2.7-1.5,3.1C90.1,83.8,90.4,83.3,91.8,82.8z"/>
	<path class="st0" d="M86.6,84.4c0.8-0.2,1.5-0.4,2.3-0.7c-0.1,0.8-0.2,1.5-0.2,2.3C87.9,85.4,87.3,85,86.6,84.4z"/>
	<path class="st0" d="M77.2,104.7c-0.2-0.7,0-0.9,0.6-0.8c0.7,0.1,1.5,0.2,2.2,0.3c0,0.1,0,0.2,0,0.2
		C79.1,104.6,78.2,104.7,77.2,104.7z"/>
	<path class="st0" d="M97.7,79.7c0.5-0.3,1.1-0.7,1.7-1.1c0,0.5,0,0.8,0,1.2c-0.6,0-1.1,0-1.6,0C97.8,79.8,97.7,79.8,97.7,79.7z"/>
	<path class="st1" d="M60,38.7c1.5,0.3,3.1,0.5,4.6,0.8c1.5,0.4,2.4,1.8,1.7,2.7c-0.5,0.7-1.4,1.2-2.2,1.4c-2.2,0.6-4.5,0.7-6.7,0.3
		c-1.2-0.2-2.3-0.3-3.3-1.1c-0.9-0.7-0.9-1.8-0.1-2.6c1.2-1.1,2.8-1,4.3-1.3c0.6-0.1,1.2-0.1,1.8-0.1C60,38.8,60,38.8,60,38.7z
		 M65,41.7c-2.2-1.6-8.5-1.5-9.9,0.1C58.3,42.9,61.5,42.9,65,41.7z"/>
	<path class="st0" d="M65,41.7c-3.4,1.3-6.6,1.2-9.9,0.1C56.5,40.1,62.8,40,65,41.7z"/>
</g>
</svg>
