<?xml version="1.0" encoding="utf-8"?>
<!-- Generator: Adobe Illustrator 20.1.0, SVG Export Plug-In . SVG Version: 6.00 Build 0)  -->
<svg version="1.1" id="Calque_1" xmlns="http://www.w3.org/2000/svg" xmlns:xlink="http://www.w3.org/1999/xlink" x="0px" y="0px"
	 viewBox="0 0 141.7 141.7" style="enable-background:new 0 0 141.7 141.7;" xml:space="preserve">
<style type="text/css">
	.st0{fill:#661141;}
	.st1{fill:#FFFFFF;}
</style>
<g>
	<path class="st0" d="M0.2,141.7c0-47.2,0-94.5,0-141.7C47.5,0,94.7,0,142,0c0,47.2,0,94.5,0,141.7C94.7,141.7,47.5,141.7,0.2,141.7
		z M103.1,87.3c0.3-3.5,0.7-7.1,0.8-10.6c0.1-3.9,0-7.7-0.1-11.6c-0.1-5.3-1.2-10.5-2.5-15.6c-0.7-3-1.9-5.8-2.8-8.8
		c-1-3.3-3.2-5.5-6.1-7c-3.7-1.9-7.7-2.7-11.8-3.2c-5.3-0.7-10.6-0.9-15.9-0.4C59.3,30.5,54,31.2,49,33.5c-2.7,1.2-5,2.9-6.1,5.8
		c-1.2,3.2-2.4,6.5-3.3,9.8C38.3,54.5,37.3,60,37,65.6c-0.3,7.3-0.2,14.6,1,21.8c1.1,6.1,2.5,12.1,5.4,17.6c1.5,2.9,4,4.5,6.9,5.6
		c3,1.1,6.1,1.8,9.3,2.3c6.9,1,13.7,1.2,20.6,0.1c0.8-0.1,1.6-0.2,2.4,0.2c3.2,1.6,6.5,2.5,10.1,2.6c10.2,0.1,18-4.4,23.7-12.8
		c1-1.5,1-3,0-4.5c-1.8-2.8-4-5.4-6.8-7.3C107.5,89.9,105.2,88.6,103.1,87.3z"/>
	<path class="st1" d="M103.1,87.3c2.1,1.3,4.4,2.5,6.5,4c2.8,1.9,4.9,4.5,6.8,7.3c1,1.5,1,3,0,4.5c-5.7,8.3-13.4,12.9-23.7,12.8
		c-3.5,0-6.9-1-10.1-2.6c-0.8-0.4-1.6-0.3-2.4-0.2c-6.9,1.1-13.7,0.9-20.6-0.1c-3.2-0.5-6.3-1.1-9.3-2.3c-2.9-1.1-5.3-2.8-6.9-5.6
		c-3-5.5-4.4-11.5-5.4-17.6c-1.2-7.2-1.3-14.5-1-21.8c0.2-5.6,1.3-11.1,2.6-16.5c0.8-3.3,2.1-6.6,3.3-9.8c1.1-2.9,3.4-4.6,6.1-5.8
		c5-2.3,10.3-3,15.7-3.5c5.3-0.4,10.7-0.2,15.9,0.4c4,0.5,8.1,1.4,11.8,3.2c2.9,1.5,5.2,3.7,6.1,7c0.9,2.9,2.1,5.8,2.8,8.8
		c1.2,5.1,2.3,10.3,2.5,15.6c0.1,3.9,0.2,7.7,0.1,11.6C103.8,80.3,103.4,83.8,103.1,87.3z M102.5,68.9c-0.4,0.2-0.5,0.2-0.7,0.3
		c-2.2,2-4.9,3.1-7.6,4c-2.7,0.9-5.4,1.6-8.2,2.2c-2.3,0.5-4.6,0.9-6.9,1.1c-2.7,0.2-5.4,0.4-8.2,0.3c-3.8-0.1-7.7-0.2-11.5-0.6
		c-2.7-0.3-5.3-0.9-8-1.4c-0.7-0.1-1.4-0.4-2.1-0.7c-2.3-0.9-4.6-1.7-6.8-2.7c-1.4-0.6-2.7-1.6-4.2-2.4c0,2.1,0,4.1,0,6.2
		c0,0.3,0.2,0.6,0.4,0.8c1.4,1.1,2.8,2.3,4.4,3.2c1.5,0.8,3.2,1.4,4.9,1.9c1.9,0.6,3.8,1.2,5.8,1.6c4,0.8,8.1,1.2,12.1,1.4
		c6.1,0.3,12.3,0,18.3-1c2.5-0.4,5-0.9,7.4-1.6c2.5-0.8,5.1-1.5,7.3-3.1c1-0.7,2-1.5,2.9-2.3c0.3-0.2,0.5-0.7,0.5-1.1
		C102.5,73,102.5,71.1,102.5,68.9z M44.3,39.9c-0.8,2.3-1.5,4.4-2.2,6.5c-0.1,0.2,0.1,0.6,0.2,0.8c0.4,0.5,0.8,0.9,1.3,1.3
		c2.9,2.4,6.3,3.4,9.9,4.2c2.8,0.7,5.6,1.1,8.5,1.4c9.8,1.2,19.6,1.4,29.2-1.4c2.5-0.7,4.8-1.8,6.8-3.5c1.5-1.3,1.5-1.3,0.9-3.2
		c-0.1-0.4-0.2-0.9-0.4-1.3c-0.6-1.5-1.1-3.1-1.8-4.9c-0.6,1.7-1.7,2.5-2.9,3.3c-2.4,1.5-5.1,2.3-7.8,3c-4.6,1.1-9.3,1.6-14,1.6
		c-7.6,0.1-15.2-0.5-22.3-3.4C47.5,43.5,45.5,42.4,44.3,39.9z M47,40.8c1.5,1.6,5.2,2.9,7,3.4C58,45.2,62,45.7,66,46
		c8.3,0.5,16.4-0.1,24.3-3c1.3-0.5,2.4-1.3,3.5-1.9c0-0.1,0-0.2,0-0.3c-1.1-0.6-2.1-1.4-3.3-1.8c-3.1-1.1-6.2-1.9-9.5-2.4
		c-6.3-0.9-12.5-1.1-18.8-0.3c-4,0.5-8,1.2-11.8,2.7C49.2,39.4,48.2,40.2,47,40.8z M58.7,74.5c0.1-6.5,0.3-12.8,0.4-19
		c-3-0.6-6.1-1.2-9.2-1.9c0,0,0,0,0,0.1c-1.1,5.9-1.1,11.9-1.4,17.8c0,0.3,0.3,0.6,0.6,0.8c0.9,0.7,2,0.8,3.1,1
		C54.4,73.7,56.6,74.1,58.7,74.5z M82.1,74.7c3-0.6,6-1.2,8.9-1.9c0.8-0.2,1.5-0.5,1.4-1.6c-0.2-3.1-0.3-6.2-0.5-9.3
		c-0.2-2.4-0.5-4.8-0.8-7.2c-3.3,0.6-6.4,1.2-9.4,1.7C81.9,62.3,82,68.3,82.1,74.7z M49.2,83.4c0,0.5,0,1,0.1,1.5
		c0.2,1.9,0.4,3.9,0.8,5.8c0.5,3.1,1.1,6.2,1.7,9.3c0.2,1,0.2,2.3,0.9,2.8c0.7,0.6,1.9,0.5,2.9,0.7c1.7,0.3,3.4,0.5,5.2,0.8
		c0-0.4,0-0.7,0-0.9c-0.5-5.4-1-10.9-1.5-16.3c-0.2-1.8-0.2-1.8-1.9-2.1C54.6,84.5,52,83.9,49.2,83.4z M69.6,75.3
		c0-6.4,0-12.7,0-18.9c-3-0.2-5.8-0.4-8.6-0.6c-0.1,3.5-0.3,6.9-0.4,10.3c-0.1,2.5-0.1,5-0.1,7.5c0,1.3,0,1.3,1.3,1.3
		c1,0,2.1,0.1,3.1,0.1C66.4,75.2,68,75.2,69.6,75.3z M43.8,102.1c0.4,0.8,0.6,1.4,1,2c0.8,1.1,1.5,2.4,2.6,3.2
		c2.3,1.8,5.1,2.6,7.9,3.3c5.3,1.3,10.8,1.6,16.2,1.6c2.6,0,5.2-0.2,7.8-0.4c-1.9-1.8-3.7-3.5-5.6-5.2c-0.2-0.1-0.4-0.2-0.7-0.2
		c-5.1,0.1-10.2-0.1-15.3-0.8c-2.9-0.4-5.9-1-8.8-1.7C47.3,103.4,45.6,102.7,43.8,102.1z M71.3,56.4c0,6.4,0,12.6,0,18.9
		c3.1-0.2,6.1-0.4,9.2-0.5c-0.2-6.2-0.4-12.3-0.6-18.4C77,56.4,74.2,56.4,71.3,56.4z M38.6,78.2c0.4,3.2,0.6,6.3,1.1,9.3
		c0.7,3.9,1.5,7.8,2.9,11.5c0.1,0.3,0.3,0.7,0.6,0.8c1.7,0.8,3.4,1.6,5.1,2.2c0.8,0.3,1.6,0.4,2.5,0.5c-0.2-0.8-0.5-1.4-0.6-2.1
		c-1.1-5.5-2.1-11-2.5-16.7c0-0.7-0.4-1.1-1-1.4c-1.8-0.8-3.6-1.7-5.3-2.5C40.4,79.4,39.6,78.8,38.6,78.2z M41.4,48.8
		c-0.3,1.5-0.7,2.7-0.9,4.1c-0.7,4.3-1.2,8.6-1.9,12.9c-0.1,0.6,0,1,0.5,1.4c0.9,0.7,1.8,1.5,2.8,2.2c1.5,1,3.1,2,5.1,2.4
		c0-0.5,0-1,0-1.4c0.4-5.5,0.8-11,1.3-16.4c0.1-0.6,0-0.9-0.7-1.2C45.4,51.7,43.3,50.6,41.4,48.8z M69.5,104.6c0-6.3,0-12.4,0-18.5
		c-2.9-0.2-5.8-0.4-8.7-0.6c0,0.2-0.1,0.3-0.1,0.4c0.3,3.8,0.6,7.7,0.9,11.5c0.2,2.1,0.5,4.1,0.8,6.2c0,0.3,0.3,0.7,0.5,0.7
		C65.1,104.4,67.3,104.5,69.5,104.6z M88.1,111.7c9,2.7,19.7-1.3,25.6-10.9c-2.4-3.7-5.5-6.7-9.7-9c0.2,0.4,0.2,0.6,0.3,0.7
		c3.3,7.5-1.2,15.5-9.3,16.6c-0.6,0.1-1.3,0.1-1.8,0.3C91.5,110.1,89.8,110.9,88.1,111.7z M94,71.8c1.3-0.6,2.5-1.2,3.6-1.7
		c1.6-0.8,3.1-1.8,4.3-3.1c0.2-0.3,0.4-0.7,0.4-1c-0.4-3.6-0.9-7.2-1.4-10.8c-0.3-1.8-0.7-3.6-1.1-5.5c-0.5,0.4-0.8,0.8-1.3,1.1
		c-1.7,1-3.4,1.9-5.1,2.9c-0.4,0.2-0.7,0.4-0.6,1c0.1,1.1,0.2,2.1,0.3,3.2c0.3,3.8,0.6,7.6,0.8,11.4C94,70,94,70.8,94,71.8z
		 M45.9,39.4c1.8-0.9,3.6-1.9,5.5-2.6c4.6-1.6,9.5-2.4,14.4-2.4c4.2-0.1,8.4,0,12.6,0.2c4.1,0.2,8,1.1,11.8,2.5
		c1.6,0.6,3.2,1.5,4.8,2.3c0,0,0.1-0.1,0.1-0.2c0.2-1.4-0.8-2.8-2.5-3.7c-2.4-1.3-5-2.2-7.7-2.7c-4.1-0.9-8.2-1.3-12.4-1.4
		c-7.6-0.1-15.2,0.4-22.3,3.3c-1.4,0.5-2.6,1.5-3.7,2.4C45.7,37.8,45.6,38.7,45.9,39.4z M71.3,86.1c0,4,0,8,0,12.1
		c2.3-3.4,5-6.1,8.3-8.2c0.2-0.1,0.3-0.3,0.3-0.5c0-1.3,0-2.7,0-4C77.1,85.7,74.3,85.9,71.3,86.1z M101.4,86.7
		c0.3-2.8,0.6-5.6,1-8.6c-1.8,1-3.4,2-5,2.9c-1.1,0.6-2.2,1-3.4,1.5c-0.3,0.1-0.6,0.4-0.6,0.7c-0.2,0.8-0.2,1.7-0.3,2.3
		C95.9,85.9,98.6,86.3,101.4,86.7z M90.5,109c0-0.1,0-0.2,0-0.3c-2-0.6-3.8-1.7-5.2-3.2c-0.1-0.1-0.3-0.2-0.5-0.2
		c-2.1,0.2-4.3,0.4-6.5,0.7c1.2,1.4,4.9,4,6.5,4.5c0.3,0.1,0.6,0.1,0.8,0.1C87.2,110.1,88.8,109.5,90.5,109z M79.6,94.7
		c-0.1,0-0.2-0.1-0.3-0.1c-2.1,1.7-3.8,3.7-5.3,5.9c-0.1,0.1-0.1,0.4,0,0.6c0.7,1,1.5,2,2.3,3c0.5,0.6,2,0.3,2.1-0.3
		C78.8,100.8,79.2,97.7,79.6,94.7z M81.5,89c3.2-1.7,6.5-2.7,10-3.1c0.1-0.9,0.2-1.7,0.3-2.5c-3.4,0.7-6.7,1.3-10,2
		C81.7,86.5,81.6,87.6,81.5,89z M83.8,103.8c-2.3-4-2.4-7.9-0.4-11.8c-2,0.7-2.1,0.9-2.3,2.8c-0.1,1.6-0.3,3.2-0.5,4.8
		c-0.2,1.5-0.4,3-0.6,4.7C81.3,104.1,82.5,103.9,83.8,103.8z M90.9,90.3c-2.7,0.9-4.9,3.9-5,6.8c0,1,0.4,1.6,1.2,1.6
		c0.8,0,1-0.5,1.3-1.4c0.3-1.1,0.5-2.4,1.3-3.1C90.7,93,90.8,91.7,90.9,90.3z M92.3,92.2c0.6-0.1,1.2-0.1,1.7-0.2
		c0.7-0.2,1-0.6,0.9-1.3c-0.1-0.7-0.6-1-1.3-1c-0.6-0.1-1.1,0.1-1.1,0.9C92.5,91,92.4,91.6,92.3,92.2z"/>
	<path class="st0" d="M102.5,68.9c0,2.2,0,4.1,0,6.1c0,0.4-0.2,0.8-0.5,1.1c-0.9,0.8-1.9,1.6-2.9,2.3c-2.2,1.6-4.8,2.3-7.3,3.1
		c-2.4,0.8-4.9,1.2-7.4,1.6c-6.1,1-12.2,1.3-18.3,1c-4.1-0.2-8.1-0.6-12.1-1.4c-2-0.4-3.9-1-5.8-1.6c-1.7-0.5-3.3-1.1-4.9-1.9
		c-1.6-0.9-3-2.1-4.4-3.2c-0.2-0.2-0.4-0.5-0.4-0.8c0-2.1,0-4.1,0-6.2c1.4,0.8,2.7,1.8,4.2,2.4c2.2,1,4.5,1.8,6.8,2.7
		c0.7,0.3,1.4,0.5,2.1,0.7c2.6,0.5,5.3,1.1,8,1.4c3.8,0.4,7.6,0.5,11.5,0.6c2.7,0.1,5.5-0.1,8.2-0.3c2.3-0.2,4.6-0.6,6.9-1.1
		c2.8-0.6,5.5-1.2,8.2-2.2c2.7-0.9,5.4-2.1,7.6-4C101.9,69.1,102.1,69.1,102.5,68.9z"/>
	<path class="st0" d="M44.3,39.9c1.2,2.5,3.2,3.6,5.3,4.4c7.2,2.9,14.7,3.4,22.3,3.4c4.7,0,9.4-0.5,14-1.6c2.7-0.6,5.4-1.4,7.8-3
		c1.1-0.7,2.3-1.6,2.9-3.3c0.7,1.8,1.2,3.3,1.8,4.9c0.1,0.4,0.2,0.9,0.4,1.3c0.6,1.9,0.6,1.9-0.9,3.2c-2,1.7-4.3,2.8-6.8,3.5
		c-9.6,2.8-19.4,2.6-29.2,1.4c-2.8-0.3-5.7-0.7-8.5-1.4c-3.5-0.8-7-1.9-9.9-4.2c-0.5-0.4-0.9-0.8-1.3-1.3C42.1,47,42,46.7,42,46.4
		C42.7,44.3,43.5,42.2,44.3,39.9z"/>
	<path class="st0" d="M47,40.8c1.1-0.6,2.2-1.4,3.4-1.9c3.8-1.5,7.8-2.2,11.8-2.7c6.3-0.8,12.6-0.6,18.8,0.3
		c3.3,0.5,6.4,1.2,9.5,2.4c1.2,0.4,2.2,1.2,3.3,1.8c0,0.1,0,0.2,0,0.3c-1.2,0.6-2.3,1.5-3.5,1.9c-7.9,2.8-16,3.4-24.3,3
		c-4-0.2-8-0.7-11.9-1.8C52.2,43.7,48.5,42.4,47,40.8z M62.7,43.7c2.2-0.4,4.4-0.1,6.2-1.6c0.5-0.5,0.8-1.6,0.3-2.1
		c-0.5-0.5-1.1-0.9-1.7-1.1c-3.1-0.9-6.2-0.9-9.3,0c-1.5,0.4-2.4,1.8-1.7,2.8c0.5,0.6,1.4,1.2,2.1,1.4
		C59.9,43.4,61.4,43.5,62.7,43.7z"/>
	<path class="st0" d="M58.7,74.5c-2.2-0.4-4.3-0.8-6.5-1.2c-1.1-0.2-2.2-0.3-3.1-1c-0.3-0.2-0.6-0.5-0.6-0.8
		c0.3-6,0.3-11.9,1.4-17.8c0-0.1,0.1-0.1,0-0.1c3.1,0.6,6.2,1.3,9.2,1.9C59,61.8,58.9,68,58.7,74.5z"/>
	<path class="st0" d="M82.1,74.7c-0.1-6.3-0.2-12.3-0.3-18.3c3-0.6,6.1-1.1,9.4-1.7c0.3,2.3,0.6,4.7,0.8,7.2
		c0.2,3.1,0.3,6.2,0.5,9.3c0.1,1.1-0.6,1.5-1.4,1.6C88.1,73.4,85.1,74,82.1,74.7z"/>
	<path class="st0" d="M49.2,83.4c2.8,0.6,5.5,1.1,8.2,1.6c1.8,0.3,1.8,0.2,1.9,2.1c0.5,5.4,1,10.9,1.5,16.3c0,0.2,0,0.4,0,0.9
		c-1.8-0.3-3.5-0.5-5.2-0.8c-1-0.2-2.3-0.1-2.9-0.7c-0.6-0.6-0.7-1.8-0.9-2.8c-0.6-3.1-1.2-6.2-1.7-9.3c-0.3-1.9-0.5-3.9-0.8-5.8
		C49.2,84.3,49.2,83.9,49.2,83.4z"/>
	<path class="st0" d="M69.6,75.3c-1.6-0.1-3.2-0.2-4.7-0.2c-1-0.1-2.1-0.1-3.1-0.1c-1.3,0-1.3,0-1.3-1.3c0-2.5,0-5,0.1-7.5
		c0.1-3.4,0.2-6.9,0.4-10.3c2.9,0.2,5.7,0.4,8.6,0.6C69.6,62.7,69.6,68.9,69.6,75.3z"/>
	<path class="st0" d="M43.8,102.1c1.8,0.6,3.5,1.3,5.2,1.7c2.9,0.7,5.8,1.2,8.8,1.7c5.1,0.7,10.1,0.9,15.3,0.8
		c0.2,0,0.5,0.1,0.7,0.2c1.9,1.7,3.7,3.4,5.6,5.2c-2.5,0.1-5.2,0.3-7.8,0.4c-5.5,0.1-10.9-0.3-16.2-1.6c-2.8-0.7-5.6-1.5-7.9-3.3
		c-1-0.8-1.8-2.1-2.6-3.2C44.4,103.5,44.1,102.9,43.8,102.1z"/>
	<path class="st0" d="M71.3,56.4c2.9,0,5.7,0,8.7,0c0.2,6,0.4,12.1,0.6,18.4c-3.1,0.2-6.2,0.4-9.2,0.5C71.3,69,71.3,62.8,71.3,56.4z
		"/>
	<path class="st0" d="M38.6,78.2c1,0.6,1.9,1.2,2.7,1.6c1.8,0.9,3.5,1.7,5.3,2.5c0.7,0.3,1,0.6,1,1.4c0.4,5.6,1.4,11.2,2.5,16.7
		c0.1,0.7,0.4,1.3,0.6,2.1c-0.9-0.2-1.7-0.2-2.5-0.5c-1.7-0.7-3.4-1.4-5.1-2.2c-0.3-0.1-0.4-0.5-0.6-0.8c-1.5-3.7-2.3-7.6-2.9-11.5
		C39.1,84.5,38.9,81.4,38.6,78.2z"/>
	<path class="st0" d="M41.4,48.8c1.9,1.8,4,2.9,6.2,3.8c0.6,0.3,0.7,0.6,0.7,1.2c-0.5,5.5-0.9,11-1.3,16.4c0,0.5,0,0.9,0,1.4
		c-1.9-0.4-3.5-1.3-5.1-2.4c-1-0.7-1.8-1.5-2.8-2.2c-0.5-0.4-0.6-0.8-0.5-1.4c0.6-4.3,1.2-8.6,1.9-12.9C40.6,51.5,41,50.2,41.4,48.8
		z"/>
	<path class="st0" d="M69.5,104.6c-2.2-0.1-4.4-0.2-6.6-0.4c-0.2,0-0.5-0.4-0.5-0.7c-0.3-2.1-0.6-4.1-0.8-6.2
		c-0.3-3.8-0.6-7.6-0.9-11.5c0-0.1,0-0.2,0.1-0.4c2.9,0.2,5.8,0.4,8.7,0.6C69.5,92.2,69.5,98.3,69.5,104.6z"/>
	<path class="st0" d="M88.1,111.7c1.7-0.8,3.4-1.5,5.1-2.2c0.6-0.2,1.2-0.2,1.8-0.3c8.1-1.1,12.6-9.1,9.3-16.6
		c-0.1-0.2-0.1-0.3-0.3-0.7c4.1,2.3,7.2,5.3,9.7,9C107.8,110.4,97.1,114.4,88.1,111.7z"/>
	<path class="st0" d="M94,71.8c0-1,0-1.9,0-2.7c-0.3-3.8-0.5-7.6-0.8-11.4c-0.1-1.1-0.2-2.1-0.3-3.2c-0.1-0.6,0.2-0.7,0.6-1
		c1.7-0.9,3.4-1.9,5.1-2.9c0.4-0.2,0.7-0.6,1.3-1.1c0.4,1.9,0.9,3.7,1.1,5.5c0.5,3.6,1,7.2,1.4,10.8c0,0.3-0.2,0.8-0.4,1
		c-1.2,1.3-2.7,2.4-4.3,3.1C96.4,70.6,95.3,71.2,94,71.8z"/>
	<path class="st0" d="M45.9,39.4c-0.3-0.7-0.2-1.7,0.5-2.2c1.2-0.9,2.4-1.9,3.7-2.4c7.2-2.9,14.7-3.4,22.3-3.3
		c4.2,0.1,8.3,0.5,12.4,1.4c2.7,0.6,5.3,1.4,7.7,2.7c1.7,0.9,2.7,2.3,2.5,3.7c0,0.1-0.1,0.2-0.1,0.2c-1.6-0.8-3.1-1.7-4.8-2.3
		c-3.8-1.5-7.8-2.3-11.8-2.5c-4.2-0.2-8.4-0.3-12.6-0.2c-4.9,0.1-9.7,0.8-14.4,2.4C49.5,37.5,47.8,38.6,45.9,39.4z"/>
	<path class="st0" d="M71.3,86.1c2.9-0.2,5.8-0.4,8.6-0.6c0,1.3,0,2.7,0,4c0,0.2-0.2,0.4-0.3,0.5c-3.2,2.1-6,4.8-8.3,8.2
		C71.3,94.1,71.3,90.1,71.3,86.1z"/>
	<path class="st0" d="M101.4,86.7c-2.9-0.4-5.6-0.8-8.3-1.2c0.1-0.7,0.1-1.5,0.3-2.3c0.1-0.3,0.4-0.6,0.6-0.7
		c1.1-0.5,2.3-0.9,3.4-1.5c1.7-0.9,3.3-1.9,5-2.9C102.1,81.1,101.7,84,101.4,86.7z"/>
	<path class="st0" d="M90.5,109c-1.6,0.5-3.3,1-4.9,1.5c-0.3,0.1-0.6,0-0.8-0.1c-1.6-0.5-5.3-3.1-6.5-4.5c2.2-0.2,4.4-0.5,6.5-0.7
		c0.2,0,0.4,0.1,0.5,0.2c1.5,1.5,3.2,2.6,5.2,3.2C90.5,108.9,90.5,108.9,90.5,109z"/>
	<path class="st0" d="M79.6,94.7c-0.4,3-0.8,6-1.2,9c-0.1,0.6-1.6,0.9-2.1,0.3c-0.8-0.9-1.6-2-2.3-3c-0.1-0.1-0.1-0.4,0-0.6
		c1.5-2.2,3.2-4.2,5.3-5.9C79.4,94.7,79.5,94.7,79.6,94.7z"/>
	<path class="st0" d="M81.5,89c0.1-1.3,0.2-2.5,0.2-3.6c3.3-0.7,6.6-1.3,10-2c-0.1,0.8-0.2,1.6-0.3,2.5C88,86.3,84.7,87.3,81.5,89z"
		/>
	<path class="st0" d="M83.8,103.8c-1.3,0.1-2.5,0.3-3.8,0.4c0.2-1.7,0.5-3.2,0.6-4.7c0.2-1.6,0.4-3.2,0.5-4.8
		c0.1-1.9,0.2-2.1,2.3-2.8C81.5,95.9,81.6,99.8,83.8,103.8z"/>
	<path class="st0" d="M90.9,90.3c-0.1,1.4-0.1,2.7-1.2,3.9c-0.7,0.8-1,2-1.3,3.1c-0.2,0.9-0.5,1.4-1.3,1.4c-0.8,0-1.2-0.6-1.2-1.6
		C86,94.1,88.1,91.2,90.9,90.3z"/>
	<path class="st0" d="M92.3,92.2c0.1-0.6,0.2-1.2,0.2-1.7c0-0.8,0.5-0.9,1.1-0.9c0.7,0.1,1.2,0.3,1.3,1c0.1,0.7-0.2,1.2-0.9,1.3
		C93.5,92.1,92.9,92.1,92.3,92.2z"/>
	<path class="st1" d="M62.7,43.7c-1.3-0.2-2.7-0.3-4.1-0.6c-0.8-0.2-1.7-0.7-2.1-1.4c-0.7-1,0.2-2.4,1.7-2.8c3.1-0.9,6.2-0.9,9.3,0
		c0.6,0.2,1.2,0.6,1.7,1.1c0.5,0.5,0.3,1.7-0.3,2.1C67.1,43.7,64.9,43.4,62.7,43.7z M67.8,41.1c-2.1-1.6-8.1-1.5-10,0
		C61.2,42.3,64.4,42.4,67.8,41.1z"/>
	<path class="st0" d="M67.8,41.1c-3.4,1.3-6.6,1.2-10,0C59.7,39.6,65.7,39.5,67.8,41.1z"/>
</g>
</svg>
