<?xml version="1.0" encoding="utf-8"?>
<!-- Generator: Adobe Illustrator 20.1.0, SVG Export Plug-In . SVG Version: 6.00 Build 0)  -->
<svg version="1.1" id="Calque_1" xmlns="http://www.w3.org/2000/svg" xmlns:xlink="http://www.w3.org/1999/xlink" x="0px" y="0px"
	 viewBox="0 0 141.7 141.7" style="enable-background:new 0 0 141.7 141.7;" xml:space="preserve">
<style type="text/css">
	.st0{fill:#661141;}
	.st1{fill:#FFFFFF;}
</style>
<g>
	<path class="st0" d="M0.3,141.7c0-47.2,0-94.4,0-141.6c47.1,0,94.3,0,141.4,0c0,0.3,0,0.6,0,0.9c0,46.6,0,93.2,0,139.8
		c0,0.3,0,0.6,0,0.9c-0.4,0-0.7,0-1,0c-46.5,0-93.1,0-139.6,0C0.8,141.7,0.5,141.7,0.3,141.7z M54.4,94.1
		C54.4,94.1,54.4,94.1,54.4,94.1c0,10.5,0,21.1,0,31.6c0,1.4,0,2.9,0,4.3c0,0.9,0.3,1.9,1.1,2.4c0.7,0.4,1.7,0.8,2.5,0.8
		c3.7,0.2,7.4,0.3,11.1,0.4c5,0,9.9,0.2,14.9-0.6c1.3-0.2,2.3-1,2.5-2.3c0.1-0.5,0.1-1.1,0.1-1.6c0-23,0-46,0-69
		c0-3-0.4-5.9-1.5-8.8c-1.2-3-3.2-5.5-5.4-7.9c-1.8-1.9-2.9-4-3.1-6.6c-0.1-1.7-0.1-3.5-0.1-5.2c0-5.5,0-11,0-16.5
		c0-0.3,0.1-0.6,0.2-0.8c0.5-1.3,0.3-2.6,0.2-3.9c0,0,0,0,0-0.1c-0.6-0.5-0.5-1.1-0.5-1.8c0-0.8-0.4-1.2-1.1-1.3
		c-2.9-0.5-5.8-0.5-8.7-0.1c-1.6,0.2-1.8,0.4-1.8,2.1c0,0.3,0,0.6-0.2,0.8C64,10.4,64,10.9,64,11.5c0,0.7,0,1.4,0,2.1
		c0,0.2,0.1,0.4,0.2,0.7c0.1,0.3,0.3,0.6,0.3,1c0,4,0,8,0,12c0,3.2,0,6.3-0.1,9.5c-0.1,1.9-0.7,3.7-1.9,5.2
		c-1.4,1.7-2.9,3.4-4.2,5.1c-1.3,1.6-2.2,3.5-2.8,5.4c-0.8,2.5-1.1,5-1.1,7.7C54.4,71.4,54.4,82.7,54.4,94.1z"/>
	<path class="st1" d="M0.3,141.7c0.3,0,0.6,0,0.8,0c46.5,0,93.1,0,139.6,0c0.3,0,0.6,0,1,0c0-0.3,0-0.6,0-0.9c0-46.6,0-93.2,0-139.8
		c0-0.3,0-0.6,0-0.9c0,0,0.1,0,0.1,0.1c0,0.2,0,0.3,0,0.5c0,47.2,0,94.4,0,141.6c-47.2,0-94.4,0-141.6,0
		C0.3,142.1,0.3,141.9,0.3,141.7z"/>
	<path class="st1" d="M54.4,94.1c0-11.3,0-22.6,0-34c0-2.6,0.3-5.2,1.1-7.7c0.6-2,1.5-3.8,2.8-5.4c1.4-1.7,2.9-3.4,4.2-5.1
		c1.2-1.5,1.8-3.3,1.9-5.2c0.1-3.2,0.1-6.3,0.1-9.5c0-4,0-8,0-12c0-0.3-0.2-0.6-0.3-1C64.1,14,64,13.8,64,13.6c0-0.7,0-1.4,0-2.1
		c0-0.5,0-1,0.5-1.4c0.2-0.1,0.2-0.5,0.2-0.8c0-1.6,0.2-1.9,1.8-2.1c2.9-0.4,5.8-0.4,8.7,0.1c0.8,0.1,1.1,0.5,1.1,1.3
		c0,0.6-0.1,1.3,0.5,1.8c0,0,0,0,0,0.1c0.1,1.3,0.3,2.6-0.2,3.9c-0.1,0.3-0.2,0.6-0.2,0.8c0,5.5,0,11,0,16.5c0,1.7,0,3.5,0.1,5.2
		c0.2,2.6,1.4,4.7,3.1,6.6c2.2,2.3,4.2,4.8,5.4,7.9c1.1,2.8,1.5,5.8,1.5,8.8c0,23,0,46,0,69c0,0.5,0,1.1-0.1,1.6
		c-0.3,1.2-1.3,2.1-2.5,2.3c-4.9,0.8-9.9,0.6-14.9,0.6c-3.7,0-7.4-0.2-11.1-0.4c-0.9,0-1.8-0.4-2.5-0.8c-0.8-0.5-1-1.5-1.1-2.4
		c0-1.4,0-2.9,0-4.3C54.3,115.1,54.3,104.6,54.4,94.1C54.4,94.1,54.4,94.1,54.4,94.1z"/>
</g>
</svg>
